<?xml version="1.0" encoding="UTF-8"?>
<svg width="240" height="327" viewBox="0 0 240 327" version="1.1" xmlns="http://www.w3.org/2000/svg" xmlns:xlink="http://www.w3.org/1999/xlink">
 <path d="M0,0 l240,155.86" fill="rgb(0,0,0)" stroke="rgb(229,0,204)" stroke-width="0.25" transform="matrix(1,0,0,-1,0,327)"/>
 <path d="M0,5 l240,155.86" fill="rgb(0,0,0)" stroke="rgb(229,0,204)" stroke-width="0.25" transform="matrix(1,0,0,-1,0,327)"/>
 <path d="M0,10 l240,155.86" fill="rgb(0,0,0)" stroke="rgb(229,0,204)" stroke-width="0.25" transform="matrix(1,0,0,-1,0,327)"/>
 <path d="M0,15 l240,155.86" fill="rgb(0,0,0)" stroke="rgb(229,0,204)" stroke-width="0.25" transform="matrix(1,0,0,-1,0,327)"/>
 <path d="M0,20 l240,155.86" fill="rgb(0,0,0)" stroke="rgb(229,0,204)" stroke-width="0.25" transform="matrix(1,0,0,-1,0,327)"/>
 <path d="M0,25 l240,155.86" fill="rgb(0,0,0)" stroke="rgb(229,0,204)" stroke-width="0.25" transform="matrix(1,0,0,-1,0,327)"/>
 <path d="M0,30 l240,155.86" fill="rgb(0,0,0)" stroke="rgb(229,0,204)" stroke-width="0.25" transform="matrix(1,0,0,-1,0,327)"/>
 <path d="M0,35 l240,155.86" fill="rgb(0,0,0)" stroke="rgb(229,0,204)" stroke-width="0.25" transform="matrix(1,0,0,-1,0,327)"/>
 <path d="M0,40 l240,155.86" fill="rgb(0,0,0)" stroke="rgb(229,0,204)" stroke-width="0.25" transform="matrix(1,0,0,-1,0,327)"/>
 <path d="M0,45 l240,155.86" fill="rgb(0,0,0)" stroke="rgb(229,0,204)" stroke-width="0.25" transform="matrix(1,0,0,-1,0,327)"/>
 <path d="M0,50 l240,155.86" fill="rgb(0,0,0)" stroke="rgb(229,0,204)" stroke-width="0.25" transform="matrix(1,0,0,-1,0,327)"/>
 <path d="M0,55 l240,155.86" fill="rgb(0,0,0)" stroke="rgb(229,0,204)" stroke-width="0.25" transform="matrix(1,0,0,-1,0,327)"/>
 <path d="M0,60 l240,155.86" fill="rgb(0,0,0)" stroke="rgb(229,0,204)" stroke-width="0.25" transform="matrix(1,0,0,-1,0,327)"/>
 <path d="M0,65 l240,155.86" fill="rgb(0,0,0)" stroke="rgb(229,0,204)" stroke-width="0.25" transform="matrix(1,0,0,-1,0,327)"/>
 <path d="M0,70 l240,155.86" fill="rgb(0,0,0)" stroke="rgb(229,0,204)" stroke-width="0.25" transform="matrix(1,0,0,-1,0,327)"/>
 <path d="M0,75 l240,155.86" fill="rgb(0,0,0)" stroke="rgb(229,0,204)" stroke-width="0.25" transform="matrix(1,0,0,-1,0,327)"/>
 <path d="M0,80 l240,155.86" fill="rgb(0,0,0)" stroke="rgb(229,0,204)" stroke-width="0.25" transform="matrix(1,0,0,-1,0,327)"/>
 <path d="M0,85 l240,155.86" fill="rgb(0,0,0)" stroke="rgb(229,0,204)" stroke-width="0.25" transform="matrix(1,0,0,-1,0,327)"/>
 <path d="M0,90 l240,155.86" fill="rgb(0,0,0)" stroke="rgb(229,0,204)" stroke-width="0.25" transform="matrix(1,0,0,-1,0,327)"/>
 <path d="M0,95 l240,155.86" fill="rgb(0,0,0)" stroke="rgb(229,0,204)" stroke-width="0.25" transform="matrix(1,0,0,-1,0,327)"/>
 <path d="M0,100 l240,155.86" fill="rgb(0,0,0)" stroke="rgb(229,0,204)" stroke-width="0.25" transform="matrix(1,0,0,-1,0,327)"/>
 <path d="M0,105 l240,155.86" fill="rgb(0,0,0)" stroke="rgb(229,0,204)" stroke-width="0.25" transform="matrix(1,0,0,-1,0,327)"/>
 <path d="M0,110 l240,155.86" fill="rgb(0,0,0)" stroke="rgb(229,0,204)" stroke-width="0.25" transform="matrix(1,0,0,-1,0,327)"/>
 <path d="M0,115 l240,155.86" fill="rgb(0,0,0)" stroke="rgb(229,0,204)" stroke-width="0.25" transform="matrix(1,0,0,-1,0,327)"/>
 <path d="M0,120 l240,155.86" fill="rgb(0,0,0)" stroke="rgb(229,0,204)" stroke-width="0.25" transform="matrix(1,0,0,-1,0,327)"/>
 <path d="M0,125 l240,155.86" fill="rgb(0,0,0)" stroke="rgb(229,0,204)" stroke-width="0.25" transform="matrix(1,0,0,-1,0,327)"/>
 <path d="M0,130 l240,155.86" fill="rgb(0,0,0)" stroke="rgb(229,0,204)" stroke-width="0.25" transform="matrix(1,0,0,-1,0,327)"/>
 <path d="M0,135 l240,155.86" fill="rgb(0,0,0)" stroke="rgb(229,0,204)" stroke-width="0.25" transform="matrix(1,0,0,-1,0,327)"/>
 <path d="M0,140 l240,155.86" fill="rgb(0,0,0)" stroke="rgb(229,0,204)" stroke-width="0.25" transform="matrix(1,0,0,-1,0,327)"/>
 <path d="M0,145 l240,155.86" fill="rgb(0,0,0)" stroke="rgb(229,0,204)" stroke-width="0.25" transform="matrix(1,0,0,-1,0,327)"/>
 <path d="M0,150 l240,155.86" fill="rgb(0,0,0)" stroke="rgb(229,0,204)" stroke-width="0.25" transform="matrix(1,0,0,-1,0,327)"/>
 <path d="M0,155 l240,155.86" fill="rgb(0,0,0)" stroke="rgb(229,0,204)" stroke-width="0.25" transform="matrix(1,0,0,-1,0,327)"/>
 <path d="M0,160 l240,155.86" fill="rgb(0,0,0)" stroke="rgb(229,0,204)" stroke-width="0.25" transform="matrix(1,0,0,-1,0,327)"/>
 <path d="M0,165 l240,155.86" fill="rgb(0,0,0)" stroke="rgb(229,0,204)" stroke-width="0.25" transform="matrix(1,0,0,-1,0,327)"/>
 <path d="M0,170 l240,155.86" fill="rgb(0,0,0)" stroke="rgb(229,0,204)" stroke-width="0.25" transform="matrix(1,0,0,-1,0,327)"/>
 <path d="M0,175 l240,155.86" fill="rgb(0,0,0)" stroke="rgb(229,0,204)" stroke-width="0.25" transform="matrix(1,0,0,-1,0,327)"/>
 <path d="M0,180 l240,155.86" fill="rgb(0,0,0)" stroke="rgb(229,0,204)" stroke-width="0.25" transform="matrix(1,0,0,-1,0,327)"/>
 <path d="M0,185 l240,155.86" fill="rgb(0,0,0)" stroke="rgb(229,0,204)" stroke-width="0.25" transform="matrix(1,0,0,-1,0,327)"/>
 <path d="M0,190 l240,155.86" fill="rgb(0,0,0)" stroke="rgb(229,0,204)" stroke-width="0.25" transform="matrix(1,0,0,-1,0,327)"/>
 <path d="M0,195 l240,155.86" fill="rgb(0,0,0)" stroke="rgb(229,0,204)" stroke-width="0.25" transform="matrix(1,0,0,-1,0,327)"/>
 <path d="M0,200 l240,155.86" fill="rgb(0,0,0)" stroke="rgb(229,0,204)" stroke-width="0.25" transform="matrix(1,0,0,-1,0,327)"/>
 <path d="M0,205 l240,155.86" fill="rgb(0,0,0)" stroke="rgb(229,0,204)" stroke-width="0.25" transform="matrix(1,0,0,-1,0,327)"/>
 <path d="M0,210 l240,155.86" fill="rgb(0,0,0)" stroke="rgb(229,0,204)" stroke-width="0.25" transform="matrix(1,0,0,-1,0,327)"/>
 <path d="M0,215 l240,155.86" fill="rgb(0,0,0)" stroke="rgb(229,0,204)" stroke-width="0.25" transform="matrix(1,0,0,-1,0,327)"/>
 <path d="M0,220 l240,155.86" fill="rgb(0,0,0)" stroke="rgb(229,0,204)" stroke-width="0.25" transform="matrix(1,0,0,-1,0,327)"/>
 <path d="M0,225 l240,155.86" fill="rgb(0,0,0)" stroke="rgb(229,0,204)" stroke-width="0.25" transform="matrix(1,0,0,-1,0,327)"/>
 <path d="M0,230 l240,155.86" fill="rgb(0,0,0)" stroke="rgb(229,0,204)" stroke-width="0.25" transform="matrix(1,0,0,-1,0,327)"/>
 <path d="M0,235 l240,155.86" fill="rgb(0,0,0)" stroke="rgb(229,0,204)" stroke-width="0.25" transform="matrix(1,0,0,-1,0,327)"/>
 <path d="M0,240 l240,155.86" fill="rgb(0,0,0)" stroke="rgb(229,0,204)" stroke-width="0.25" transform="matrix(1,0,0,-1,0,327)"/>
 <path d="M0,245 l240,155.86" fill="rgb(0,0,0)" stroke="rgb(229,0,204)" stroke-width="0.25" transform="matrix(1,0,0,-1,0,327)"/>
 <path d="M0,250 l240,155.86" fill="rgb(0,0,0)" stroke="rgb(229,0,204)" stroke-width="0.25" transform="matrix(1,0,0,-1,0,327)"/>
 <path d="M0,255 l240,155.86" fill="rgb(0,0,0)" stroke="rgb(229,0,204)" stroke-width="0.25" transform="matrix(1,0,0,-1,0,327)"/>
 <path d="M0,260 l240,155.86" fill="rgb(0,0,0)" stroke="rgb(229,0,204)" stroke-width="0.25" transform="matrix(1,0,0,-1,0,327)"/>
 <path d="M0,265 l240,155.86" fill="rgb(0,0,0)" stroke="rgb(229,0,204)" stroke-width="0.25" transform="matrix(1,0,0,-1,0,327)"/>
 <path d="M0,270 l240,155.86" fill="rgb(0,0,0)" stroke="rgb(229,0,204)" stroke-width="0.25" transform="matrix(1,0,0,-1,0,327)"/>
 <path d="M0,275 l240,155.86" fill="rgb(0,0,0)" stroke="rgb(229,0,204)" stroke-width="0.25" transform="matrix(1,0,0,-1,0,327)"/>
 <path d="M0,280 l240,155.86" fill="rgb(0,0,0)" stroke="rgb(229,0,204)" stroke-width="0.25" transform="matrix(1,0,0,-1,0,327)"/>
 <path d="M0,285 l240,155.86" fill="rgb(0,0,0)" stroke="rgb(229,0,204)" stroke-width="0.25" transform="matrix(1,0,0,-1,0,327)"/>
 <path d="M0,290 l240,155.86" fill="rgb(0,0,0)" stroke="rgb(229,0,204)" stroke-width="0.25" transform="matrix(1,0,0,-1,0,327)"/>
 <path d="M0,295 l240,155.86" fill="rgb(0,0,0)" stroke="rgb(229,0,204)" stroke-width="0.25" transform="matrix(1,0,0,-1,0,327)"/>
 <path d="M0,300 l240,155.86" fill="rgb(0,0,0)" stroke="rgb(229,0,204)" stroke-width="0.25" transform="matrix(1,0,0,-1,0,327)"/>
 <path d="M0,305 l240,155.86" fill="rgb(0,0,0)" stroke="rgb(229,0,204)" stroke-width="0.25" transform="matrix(1,0,0,-1,0,327)"/>
 <path d="M0,310 l240,155.86" fill="rgb(0,0,0)" stroke="rgb(229,0,204)" stroke-width="0.25" transform="matrix(1,0,0,-1,0,327)"/>
 <path d="M0,315 l240,155.86" fill="rgb(0,0,0)" stroke="rgb(229,0,204)" stroke-width="0.25" transform="matrix(1,0,0,-1,0,327)"/>
 <path d="M0,320 l240,155.86" fill="rgb(0,0,0)" stroke="rgb(229,0,204)" stroke-width="0.25" transform="matrix(1,0,0,-1,0,327)"/>
 <path d="M0,325 l240,155.86" fill="rgb(0,0,0)" stroke="rgb(229,0,204)" stroke-width="0.25" transform="matrix(1,0,0,-1,0,327)"/>
 <path d="M7,0 l240,155.86" fill="rgb(0,0,0)" stroke="rgb(229,0,204)" stroke-width="0.25" transform="matrix(1,0,0,-1,0,327)"/>
 <path d="M14,0 l240,155.86" fill="rgb(0,0,0)" stroke="rgb(229,0,204)" stroke-width="0.25" transform="matrix(1,0,0,-1,0,327)"/>
 <path d="M21,0 l240,155.86" fill="rgb(0,0,0)" stroke="rgb(229,0,204)" stroke-width="0.25" transform="matrix(1,0,0,-1,0,327)"/>
 <path d="M28,0 l240,155.86" fill="rgb(0,0,0)" stroke="rgb(229,0,204)" stroke-width="0.25" transform="matrix(1,0,0,-1,0,327)"/>
 <path d="M35,0 l240,155.86" fill="rgb(0,0,0)" stroke="rgb(229,0,204)" stroke-width="0.25" transform="matrix(1,0,0,-1,0,327)"/>
 <path d="M42,0 l240,155.86" fill="rgb(0,0,0)" stroke="rgb(229,0,204)" stroke-width="0.25" transform="matrix(1,0,0,-1,0,327)"/>
 <path d="M49,0 l240,155.86" fill="rgb(0,0,0)" stroke="rgb(229,0,204)" stroke-width="0.25" transform="matrix(1,0,0,-1,0,327)"/>
 <path d="M56,0 l240,155.86" fill="rgb(0,0,0)" stroke="rgb(229,0,204)" stroke-width="0.25" transform="matrix(1,0,0,-1,0,327)"/>
 <path d="M63,0 l240,155.86" fill="rgb(0,0,0)" stroke="rgb(229,0,204)" stroke-width="0.25" transform="matrix(1,0,0,-1,0,327)"/>
 <path d="M70,0 l240,155.86" fill="rgb(0,0,0)" stroke="rgb(229,0,204)" stroke-width="0.25" transform="matrix(1,0,0,-1,0,327)"/>
 <path d="M77,0 l240,155.86" fill="rgb(0,0,0)" stroke="rgb(229,0,204)" stroke-width="0.25" transform="matrix(1,0,0,-1,0,327)"/>
 <path d="M84,0 l240,155.86" fill="rgb(0,0,0)" stroke="rgb(229,0,204)" stroke-width="0.25" transform="matrix(1,0,0,-1,0,327)"/>
 <path d="M91,0 l240,155.86" fill="rgb(0,0,0)" stroke="rgb(229,0,204)" stroke-width="0.25" transform="matrix(1,0,0,-1,0,327)"/>
 <path d="M98,0 l240,155.86" fill="rgb(0,0,0)" stroke="rgb(229,0,204)" stroke-width="0.25" transform="matrix(1,0,0,-1,0,327)"/>
 <path d="M105,0 l240,155.86" fill="rgb(0,0,0)" stroke="rgb(229,0,204)" stroke-width="0.25" transform="matrix(1,0,0,-1,0,327)"/>
 <path d="M112,0 l240,155.86" fill="rgb(0,0,0)" stroke="rgb(229,0,204)" stroke-width="0.25" transform="matrix(1,0,0,-1,0,327)"/>
 <path d="M119,0 l240,155.86" fill="rgb(0,0,0)" stroke="rgb(229,0,204)" stroke-width="0.25" transform="matrix(1,0,0,-1,0,327)"/>
 <path d="M126,0 l240,155.86" fill="rgb(0,0,0)" stroke="rgb(229,0,204)" stroke-width="0.25" transform="matrix(1,0,0,-1,0,327)"/>
 <path d="M133,0 l240,155.86" fill="rgb(0,0,0)" stroke="rgb(229,0,204)" stroke-width="0.25" transform="matrix(1,0,0,-1,0,327)"/>
 <path d="M140,0 l240,155.86" fill="rgb(0,0,0)" stroke="rgb(229,0,204)" stroke-width="0.25" transform="matrix(1,0,0,-1,0,327)"/>
 <path d="M147,0 l240,155.86" fill="rgb(0,0,0)" stroke="rgb(229,0,204)" stroke-width="0.25" transform="matrix(1,0,0,-1,0,327)"/>
 <path d="M154,0 l240,155.86" fill="rgb(0,0,0)" stroke="rgb(229,0,204)" stroke-width="0.25" transform="matrix(1,0,0,-1,0,327)"/>
 <path d="M161,0 l240,155.86" fill="rgb(0,0,0)" stroke="rgb(229,0,204)" stroke-width="0.25" transform="matrix(1,0,0,-1,0,327)"/>
 <path d="M168,0 l240,155.86" fill="rgb(0,0,0)" stroke="rgb(229,0,204)" stroke-width="0.25" transform="matrix(1,0,0,-1,0,327)"/>
 <path d="M175,0 l240,155.86" fill="rgb(0,0,0)" stroke="rgb(229,0,204)" stroke-width="0.25" transform="matrix(1,0,0,-1,0,327)"/>
 <path d="M182,0 l240,155.86" fill="rgb(0,0,0)" stroke="rgb(229,0,204)" stroke-width="0.25" transform="matrix(1,0,0,-1,0,327)"/>
 <path d="M189,0 l240,155.86" fill="rgb(0,0,0)" stroke="rgb(229,0,204)" stroke-width="0.25" transform="matrix(1,0,0,-1,0,327)"/>
 <path d="M196,0 l240,155.86" fill="rgb(0,0,0)" stroke="rgb(229,0,204)" stroke-width="0.25" transform="matrix(1,0,0,-1,0,327)"/>
 <path d="M203,0 l240,155.86" fill="rgb(0,0,0)" stroke="rgb(229,0,204)" stroke-width="0.25" transform="matrix(1,0,0,-1,0,327)"/>
 <path d="M210,0 l240,155.86" fill="rgb(0,0,0)" stroke="rgb(229,0,204)" stroke-width="0.25" transform="matrix(1,0,0,-1,0,327)"/>
 <path d="M217,0 l240,155.86" fill="rgb(0,0,0)" stroke="rgb(229,0,204)" stroke-width="0.25" transform="matrix(1,0,0,-1,0,327)"/>
 <path d="M224,0 l240,155.86" fill="rgb(0,0,0)" stroke="rgb(229,0,204)" stroke-width="0.25" transform="matrix(1,0,0,-1,0,327)"/>
 <path d="M231,0 l240,155.86" fill="rgb(0,0,0)" stroke="rgb(229,0,204)" stroke-width="0.25" transform="matrix(1,0,0,-1,0,327)"/>
 <path d="M238,0 l240,155.86" fill="rgb(0,0,0)" stroke="rgb(229,0,204)" stroke-width="0.25" transform="matrix(1,0,0,-1,0,327)"/>
 <path d="M15,15 l210,0 l0,297 l-210,0 Z" fill="rgb(224,224,224)" stroke="rgb(0,0,0)" stroke-width="0.5" transform="matrix(1,0,0,-1,0,327)"/>
 <path d="M50,67 l122.5,0 l0,210 l-122.5,0 Z" fill="rgb(255,255,255)" stroke="rgb(0,0,0)" stroke-width="0.15" transform="matrix(1,0,0,-1,0,327)"/>
 <path d="M15,163.5 l35,0" fill="rgb(255,255,255)" stroke="rgb(0,0,255)" stroke-width="0.15" transform="matrix(1,0,0,-1,0,327)"/>
 <path d="M172.5,163.5 l52.5,0" fill="rgb(255,255,255)" stroke="rgb(0,0,255)" stroke-width="0.15" transform="matrix(1,0,0,-1,0,327)"/>
 <path d="M120,15 l0,52" fill="rgb(255,255,255)" stroke="rgb(0,0,255)" stroke-width="0.15" transform="matrix(1,0,0,-1,0,327)"/>
 <path d="M120,277 l0,35" fill="rgb(255,255,255)" stroke="rgb(0,0,255)" stroke-width="0.15" transform="matrix(1,0,0,-1,0,327)"/>
 <text text-anchor="start" transform="matrix(1.0,0.0,0.0,1.0,9.44970703125,-157.08488281249998)">
  <tspan fill="rgb(0,0,255)" font-family="LucidaGrande" font-size="6" stroke="rgb(0,0,255)" stroke-width="0.15" x="10" y="317">
   i. margin
  </tspan>
 </text>
 <text text-anchor="start" transform="matrix(1.0,0.0,0.0,1.0,174.72412109375,-157.08488281249998)">
  <tspan fill="rgb(0,0,255)" font-family="LucidaGrande" font-size="6" stroke="rgb(0,0,255)" stroke-width="0.15" x="10" y="317">
   o. margin
  </tspan>
 </text>
 <text text-anchor="start" transform="matrix(6.123233995736766e-17,1.0,-1.0,6.123233995736766e-17,440.5848828125,9.194824218749979)">
  <tspan fill="rgb(0,0,255)" font-family="LucidaGrande" font-size="6" stroke="rgb(0,0,255)" stroke-width="0.15" x="10" y="317">
   t. margin
  </tspan>
 </text>
 <text text-anchor="start" transform="matrix(6.123233995736766e-17,1.0,-1.0,6.123233995736766e-17,440.5848828125,261.9287109375)">
  <tspan fill="rgb(0,0,255)" font-family="LucidaGrande" font-size="6" stroke="rgb(0,0,255)" stroke-width="0.15" x="10" y="317">
   b. margin
  </tspan>
 </text>
 <text text-anchor="start" transform="matrix(1.0,0.0,0.0,1.0,102.013671875,-307.0)">
  <tspan fill="rgb(229,0,204)" font-family="LucidaGrande" font-size="6" stroke="rgb(0,0,255)" stroke-width="0.15" x="10" y="317">
   bleed
  </tspan>
 </text>
</svg>