<?xml version="1.0" encoding="UTF-8"?>
<svg width="131" height="201" viewBox="0 0 131 201" version="1.1" xmlns="http://www.w3.org/2000/svg" xmlns:xlink="http://www.w3.org/1999/xlink">
 <path d="M0,0 l131,85.07" fill="rgb(0,0,0)" stroke="rgb(229,0,204)" stroke-width="0.25" transform="matrix(1,0,0,-1,0,201)"/>
 <path d="M0,5 l131,85.07" fill="rgb(0,0,0)" stroke="rgb(229,0,204)" stroke-width="0.25" transform="matrix(1,0,0,-1,0,201)"/>
 <path d="M0,10 l131,85.07" fill="rgb(0,0,0)" stroke="rgb(229,0,204)" stroke-width="0.25" transform="matrix(1,0,0,-1,0,201)"/>
 <path d="M0,15 l131,85.07" fill="rgb(0,0,0)" stroke="rgb(229,0,204)" stroke-width="0.25" transform="matrix(1,0,0,-1,0,201)"/>
 <path d="M0,20 l131,85.07" fill="rgb(0,0,0)" stroke="rgb(229,0,204)" stroke-width="0.25" transform="matrix(1,0,0,-1,0,201)"/>
 <path d="M0,25 l131,85.07" fill="rgb(0,0,0)" stroke="rgb(229,0,204)" stroke-width="0.25" transform="matrix(1,0,0,-1,0,201)"/>
 <path d="M0,30 l131,85.07" fill="rgb(0,0,0)" stroke="rgb(229,0,204)" stroke-width="0.25" transform="matrix(1,0,0,-1,0,201)"/>
 <path d="M0,35 l131,85.07" fill="rgb(0,0,0)" stroke="rgb(229,0,204)" stroke-width="0.25" transform="matrix(1,0,0,-1,0,201)"/>
 <path d="M0,40 l131,85.07" fill="rgb(0,0,0)" stroke="rgb(229,0,204)" stroke-width="0.25" transform="matrix(1,0,0,-1,0,201)"/>
 <path d="M0,45 l131,85.07" fill="rgb(0,0,0)" stroke="rgb(229,0,204)" stroke-width="0.25" transform="matrix(1,0,0,-1,0,201)"/>
 <path d="M0,50 l131,85.07" fill="rgb(0,0,0)" stroke="rgb(229,0,204)" stroke-width="0.25" transform="matrix(1,0,0,-1,0,201)"/>
 <path d="M0,55 l131,85.07" fill="rgb(0,0,0)" stroke="rgb(229,0,204)" stroke-width="0.25" transform="matrix(1,0,0,-1,0,201)"/>
 <path d="M0,60 l131,85.07" fill="rgb(0,0,0)" stroke="rgb(229,0,204)" stroke-width="0.25" transform="matrix(1,0,0,-1,0,201)"/>
 <path d="M0,65 l131,85.07" fill="rgb(0,0,0)" stroke="rgb(229,0,204)" stroke-width="0.25" transform="matrix(1,0,0,-1,0,201)"/>
 <path d="M0,70 l131,85.07" fill="rgb(0,0,0)" stroke="rgb(229,0,204)" stroke-width="0.25" transform="matrix(1,0,0,-1,0,201)"/>
 <path d="M0,75 l131,85.07" fill="rgb(0,0,0)" stroke="rgb(229,0,204)" stroke-width="0.25" transform="matrix(1,0,0,-1,0,201)"/>
 <path d="M0,80 l131,85.07" fill="rgb(0,0,0)" stroke="rgb(229,0,204)" stroke-width="0.25" transform="matrix(1,0,0,-1,0,201)"/>
 <path d="M0,85 l131,85.07" fill="rgb(0,0,0)" stroke="rgb(229,0,204)" stroke-width="0.25" transform="matrix(1,0,0,-1,0,201)"/>
 <path d="M0,90 l131,85.07" fill="rgb(0,0,0)" stroke="rgb(229,0,204)" stroke-width="0.25" transform="matrix(1,0,0,-1,0,201)"/>
 <path d="M0,95 l131,85.07" fill="rgb(0,0,0)" stroke="rgb(229,0,204)" stroke-width="0.25" transform="matrix(1,0,0,-1,0,201)"/>
 <path d="M0,100 l131,85.07" fill="rgb(0,0,0)" stroke="rgb(229,0,204)" stroke-width="0.25" transform="matrix(1,0,0,-1,0,201)"/>
 <path d="M0,105 l131,85.07" fill="rgb(0,0,0)" stroke="rgb(229,0,204)" stroke-width="0.25" transform="matrix(1,0,0,-1,0,201)"/>
 <path d="M0,110 l131,85.07" fill="rgb(0,0,0)" stroke="rgb(229,0,204)" stroke-width="0.25" transform="matrix(1,0,0,-1,0,201)"/>
 <path d="M0,115 l131,85.07" fill="rgb(0,0,0)" stroke="rgb(229,0,204)" stroke-width="0.25" transform="matrix(1,0,0,-1,0,201)"/>
 <path d="M0,120 l131,85.07" fill="rgb(0,0,0)" stroke="rgb(229,0,204)" stroke-width="0.25" transform="matrix(1,0,0,-1,0,201)"/>
 <path d="M0,125 l131,85.07" fill="rgb(0,0,0)" stroke="rgb(229,0,204)" stroke-width="0.25" transform="matrix(1,0,0,-1,0,201)"/>
 <path d="M0,130 l131,85.07" fill="rgb(0,0,0)" stroke="rgb(229,0,204)" stroke-width="0.25" transform="matrix(1,0,0,-1,0,201)"/>
 <path d="M0,135 l131,85.07" fill="rgb(0,0,0)" stroke="rgb(229,0,204)" stroke-width="0.25" transform="matrix(1,0,0,-1,0,201)"/>
 <path d="M0,140 l131,85.07" fill="rgb(0,0,0)" stroke="rgb(229,0,204)" stroke-width="0.25" transform="matrix(1,0,0,-1,0,201)"/>
 <path d="M0,145 l131,85.07" fill="rgb(0,0,0)" stroke="rgb(229,0,204)" stroke-width="0.25" transform="matrix(1,0,0,-1,0,201)"/>
 <path d="M0,150 l131,85.07" fill="rgb(0,0,0)" stroke="rgb(229,0,204)" stroke-width="0.25" transform="matrix(1,0,0,-1,0,201)"/>
 <path d="M0,155 l131,85.07" fill="rgb(0,0,0)" stroke="rgb(229,0,204)" stroke-width="0.25" transform="matrix(1,0,0,-1,0,201)"/>
 <path d="M0,160 l131,85.07" fill="rgb(0,0,0)" stroke="rgb(229,0,204)" stroke-width="0.25" transform="matrix(1,0,0,-1,0,201)"/>
 <path d="M0,165 l131,85.07" fill="rgb(0,0,0)" stroke="rgb(229,0,204)" stroke-width="0.25" transform="matrix(1,0,0,-1,0,201)"/>
 <path d="M0,170 l131,85.07" fill="rgb(0,0,0)" stroke="rgb(229,0,204)" stroke-width="0.25" transform="matrix(1,0,0,-1,0,201)"/>
 <path d="M0,175 l131,85.07" fill="rgb(0,0,0)" stroke="rgb(229,0,204)" stroke-width="0.25" transform="matrix(1,0,0,-1,0,201)"/>
 <path d="M0,180 l131,85.07" fill="rgb(0,0,0)" stroke="rgb(229,0,204)" stroke-width="0.25" transform="matrix(1,0,0,-1,0,201)"/>
 <path d="M0,185 l131,85.07" fill="rgb(0,0,0)" stroke="rgb(229,0,204)" stroke-width="0.25" transform="matrix(1,0,0,-1,0,201)"/>
 <path d="M0,190 l131,85.07" fill="rgb(0,0,0)" stroke="rgb(229,0,204)" stroke-width="0.25" transform="matrix(1,0,0,-1,0,201)"/>
 <path d="M0,195 l131,85.07" fill="rgb(0,0,0)" stroke="rgb(229,0,204)" stroke-width="0.25" transform="matrix(1,0,0,-1,0,201)"/>
 <path d="M0,200 l131,85.07" fill="rgb(0,0,0)" stroke="rgb(229,0,204)" stroke-width="0.25" transform="matrix(1,0,0,-1,0,201)"/>
 <path d="M7,0 l131,85.07" fill="rgb(0,0,0)" stroke="rgb(229,0,204)" stroke-width="0.25" transform="matrix(1,0,0,-1,0,201)"/>
 <path d="M14,0 l131,85.07" fill="rgb(0,0,0)" stroke="rgb(229,0,204)" stroke-width="0.25" transform="matrix(1,0,0,-1,0,201)"/>
 <path d="M21,0 l131,85.07" fill="rgb(0,0,0)" stroke="rgb(229,0,204)" stroke-width="0.25" transform="matrix(1,0,0,-1,0,201)"/>
 <path d="M28,0 l131,85.07" fill="rgb(0,0,0)" stroke="rgb(229,0,204)" stroke-width="0.25" transform="matrix(1,0,0,-1,0,201)"/>
 <path d="M35,0 l131,85.07" fill="rgb(0,0,0)" stroke="rgb(229,0,204)" stroke-width="0.25" transform="matrix(1,0,0,-1,0,201)"/>
 <path d="M42,0 l131,85.07" fill="rgb(0,0,0)" stroke="rgb(229,0,204)" stroke-width="0.25" transform="matrix(1,0,0,-1,0,201)"/>
 <path d="M49,0 l131,85.07" fill="rgb(0,0,0)" stroke="rgb(229,0,204)" stroke-width="0.25" transform="matrix(1,0,0,-1,0,201)"/>
 <path d="M56,0 l131,85.07" fill="rgb(0,0,0)" stroke="rgb(229,0,204)" stroke-width="0.25" transform="matrix(1,0,0,-1,0,201)"/>
 <path d="M63,0 l131,85.07" fill="rgb(0,0,0)" stroke="rgb(229,0,204)" stroke-width="0.25" transform="matrix(1,0,0,-1,0,201)"/>
 <path d="M70,0 l131,85.07" fill="rgb(0,0,0)" stroke="rgb(229,0,204)" stroke-width="0.25" transform="matrix(1,0,0,-1,0,201)"/>
 <path d="M77,0 l131,85.07" fill="rgb(0,0,0)" stroke="rgb(229,0,204)" stroke-width="0.25" transform="matrix(1,0,0,-1,0,201)"/>
 <path d="M84,0 l131,85.07" fill="rgb(0,0,0)" stroke="rgb(229,0,204)" stroke-width="0.25" transform="matrix(1,0,0,-1,0,201)"/>
 <path d="M91,0 l131,85.07" fill="rgb(0,0,0)" stroke="rgb(229,0,204)" stroke-width="0.25" transform="matrix(1,0,0,-1,0,201)"/>
 <path d="M98,0 l131,85.07" fill="rgb(0,0,0)" stroke="rgb(229,0,204)" stroke-width="0.25" transform="matrix(1,0,0,-1,0,201)"/>
 <path d="M105,0 l131,85.07" fill="rgb(0,0,0)" stroke="rgb(229,0,204)" stroke-width="0.25" transform="matrix(1,0,0,-1,0,201)"/>
 <path d="M112,0 l131,85.07" fill="rgb(0,0,0)" stroke="rgb(229,0,204)" stroke-width="0.25" transform="matrix(1,0,0,-1,0,201)"/>
 <path d="M119,0 l131,85.07" fill="rgb(0,0,0)" stroke="rgb(229,0,204)" stroke-width="0.25" transform="matrix(1,0,0,-1,0,201)"/>
 <path d="M126,0 l131,85.07" fill="rgb(0,0,0)" stroke="rgb(229,0,204)" stroke-width="0.25" transform="matrix(1,0,0,-1,0,201)"/>
 <path d="M10,10 l111,0 l0,181 l-111,0 Z" fill="rgb(224,224,224)" stroke="rgb(0,0,0)" stroke-width="0.5" transform="matrix(1,0,0,-1,0,201)"/>
 <path d="M19.25,40.17 l83.25,0 l0,135.75 l-83.25,0 Z" fill="rgb(255,255,255)" stroke="rgb(0,0,0)" stroke-width="0.15" transform="matrix(1,0,0,-1,0,201)"/>
 <path d="M10,100.5 l9.25,0" fill="rgb(255,255,255)" stroke="rgb(0,0,255)" stroke-width="0.15" transform="matrix(1,0,0,-1,0,201)"/>
 <path d="M102.5,100.5 l18.5,0" fill="rgb(255,255,255)" stroke="rgb(0,0,255)" stroke-width="0.15" transform="matrix(1,0,0,-1,0,201)"/>
 <path d="M65.5,10 l0,30.17" fill="rgb(255,255,255)" stroke="rgb(0,0,255)" stroke-width="0.15" transform="matrix(1,0,0,-1,0,201)"/>
 <path d="M65.5,175.92 l0,15.08" fill="rgb(255,255,255)" stroke="rgb(0,0,255)" stroke-width="0.15" transform="matrix(1,0,0,-1,0,201)"/>
 <text text-anchor="start" transform="matrix(1.0,0.0,0.0,1.0,2.057861328125,-94.48740234375)">
  <tspan fill="rgb(0,0,255)" font-family="LucidaGrande" font-size="5" stroke="rgb(0,0,255)" stroke-width="0.15" x="10" y="192">
   IN
  </tspan>
 </text>
 <text text-anchor="start" transform="matrix(1.0,0.0,0.0,1.0,96.494873046875,-94.48740234375)">
  <tspan fill="rgb(0,0,255)" font-family="LucidaGrande" font-size="5" stroke="rgb(0,0,255)" stroke-width="0.15" x="10" y="192">
   OUT
  </tspan>
 </text>
 <text text-anchor="start" transform="matrix(6.123233995736766e-17,1.0,-1.0,6.123233995736766e-17,260.48740234375,2.6368815104166448)">
  <tspan fill="rgb(0,0,255)" font-family="LucidaGrande" font-size="5" stroke="rgb(0,0,255)" stroke-width="0.15" x="10" y="192">
   TOP
  </tspan>
 </text>
 <text text-anchor="start" transform="matrix(6.123233995736766e-17,1.0,-1.0,6.123233995736766e-17,260.48740234375,155.27945963541666)">
  <tspan fill="rgb(0,0,255)" font-family="LucidaGrande" font-size="5" stroke="rgb(0,0,255)" stroke-width="0.15" x="10" y="192">
   BOTTOM
  </tspan>
 </text>
 <text text-anchor="start" transform="matrix(1.0,0.0,0.0,1.0,46.67578125,-184.33333333333334)">
  <tspan fill="rgb(229,0,204)" font-family="LucidaGrande" font-size="6" stroke="rgb(0,0,255)" stroke-width="0.15" x="10" y="191">
   BLEED
  </tspan>
 </text>
</svg>